Patient4_TMGait_0pt6_01_right_09_GRF.mot
version=1
nRows=78
nColumns=19
inDegrees=no
endheader
time	F1x	F1y	F1z	M1x	M1y	M1z	F2x	F2y	F2z	M2x	M2y	M2z	EC1x	EC1y	EC1z	EC2x	EC2y	EC2z
10.33	8.9963	745.6558	61.2191	-280.3777	-49.4959	669.2436	-6.8617	-5.4913	-1.2249	-0.58339	0.41094	-0.68385	-0.0592	0.0182	-0.0073	-0.0462	0.0165	0.9585
10.3423	10.3344	738.9487	58.9619	-278.0194	-46.6473	659.1598	-4.7658	-2.9982	-0.98392	-0.051292	0.44068	0.18195	-0.0592	0.0182	-0.0073	-0.0462	0.0165	0.9585
10.3546	12.0061	733.0324	56.9963	-275.8852	-43.8726	649.3417	-3.0163	-0.85305	-0.72145	0.39177	0.43323	0.94248	-0.0592	0.0182	-0.0073	-0.0462	0.0165	0.9585
10.3669	13.8946	728.5559	55.4296	-274.1938	-41.3277	640.5881	-1.6927	0.81633	-0.48483	0.72954	0.40934	1.5469	-0.0592	0.0182	-0.0073	-0.0462	0.0165	0.9585
10.3791	15.8408	725.8107	54.3132	-273.0437	-39.1339	633.3441	-0.79738	2.0216	-0.29617	0.97113	0.38787	2.0222	-0.0592	0.0182	-0.0073	-0.0462	0.0165	0.9585
10.3914	17.7155	724.755	53.6222	-272.4211	-37.3272	627.7005	-0.26737	2.8149	-0.15748	1.1287	0.37433	2.386	-0.0592	0.0182	-0.0073	-0.0462	0.0165	0.9585
10.4037	19.4261	725.1286	53.3336	-272.2368	-35.9282	623.5014	-0.030972	3.2794	-0.058021	1.2182	0.36958	2.6608	-0.0592	0.0182	-0.0073	-0.0462	0.0165	0.9585
10.416	20.9638	726.582	53.3921	-272.3685	-34.902	620.458	-0.0096019	3.4778	0.0075749	1.2477	0.3809	2.8296	-0.0592	0.0182	-0.0073	-0.0462	0.0165	0.9585
10.4283	22.3841	728.7835	53.7613	-272.6956	-34.2054	618.2669	-0.14399	3.4405	0.05631	1.2152	0.40734	2.8575	-0.0592	0.0182	-0.0073	-0.0462	0.0165	0.9585
10.4406	23.7776	731.4417	54.3952	-273.1163	-33.7692	616.6258	-0.38741	3.174	0.091984	1.109	0.45474	2.7006	-0.0592	0.0182	-0.0073	-0.0462	0.0165	0.9585
10.4529	25.2526	734.3461	55.2579	-273.563	-33.5287	615.3066	-0.69352	2.6404	0.13099	0.90428	0.50805	2.2744	-0.0592	0.0182	-0.0073	-0.0462	0.0165	0.9585
10.4651	26.9159	737.361	56.3073	-274.0001	-33.4117	614.1467	-1.0278	1.7812	0.17679	0.56944	0.56083	1.4871	-0.0592	0.0182	-0.0073	-0.0462	0.0165	0.9585
10.4774	28.8335	740.4159	57.4969	-274.417	-33.3524	613.0501	-1.3213	0.52312	0.24016	0.072179	0.58402	0.2425	-0.0592	0.0182	-0.0073	-0.0462	0.0165	0.9585
10.4897	31.0396	743.5101	58.7831	-274.8312	-33.2991	611.9886	-1.5022	-1.1623	0.31133	-0.60081	0.55748	-1.4803	-0.0592	0.0182	-0.0073	-0.0462	0.0165	0.9585
10.502	33.5158	746.6508	60.1079	-275.2621	-33.2045	610.9541	-1.4498	-3.2387	0.3913	-1.432	0.42829	-3.6495	-0.0592	0.0182	-0.0073	-0.0462	0.0165	0.9585
10.5143	36.1937	749.7432	61.4198	-275.6878	-33.0422	609.872	-1.0178	-5.5094	0.46191	-2.3424	0.14855	-6.052	-0.0592	0.0182	-0.0073	-0.0462	0.0165	0.9585
10.5266	38.9384	752.5107	62.6714	-276.0116	-32.811	608.549	-0.0021692	-7.5704	0.50137	-3.1662	-0.34023	-8.2643	-0.0592	0.0182	-0.0073	-0.0462	0.0165	0.9585
10.5389	41.5908	754.5148	63.8351	-276.0687	-32.5394	606.6877	1.8016	-8.7094	0.47905	-3.615	-1.0849	-9.5237	-0.0592	0.0182	-0.0073	-0.0462	0.0165	0.9585
10.5511	43.9752	755.2423	64.8891	-275.6587	-32.2678	603.9344	4.5923	-7.8469	0.34919	-3.2504	-2.1052	-8.6943	-0.0592	0.0182	-0.0073	-0.0462	0.0165	0.9585
10.5634	45.9676	754.1704	65.8211	-274.5693	-32.0329	599.9335	8.4586	-3.506	0.050525	-1.4701	-3.3607	-4.2167	-0.0592	0.0182	-0.0073	-0.0462	0.0165	0.9585
10.5757	47.5333	750.7756	66.5952	-272.5914	-31.8278	594.3259	13.3066	6.1416	-0.49224	2.4733	-4.7223	5.8336	-0.0592	0.0182	-0.0073	-0.0462	0.0165	0.9585
10.588	48.715	744.5334	67.1438	-269.5265	-31.5982	586.7444	18.7025	23.125	-1.3562	9.4065	-5.922	23.5986	-0.0592	0.0182	-0.0073	-0.0462	0.0165	0.9585
10.6003	49.6271	734.8583	67.3367	-265.1769	-31.2207	576.7414	23.7181	49.2915	-2.6042	20.0877	-6.513	51.033	-0.0592	0.0182	-0.0073	-0.0462	0.0165	0.9585
10.6126	50.3883	721.0833	66.9876	-259.3353	-30.5326	563.8037	26.8582	85.811	-4.2156	34.999	-5.9216	89.3952	-0.0592	0.0182	-0.0073	-0.0462	0.0165	0.9585
10.6249	51.0829	702.4181	65.8557	-251.7715	-29.3409	547.3001	26.2377	132.5098	-6.0448	54.0809	-3.5596	138.5162	-0.0592	0.0182	-0.0073	-0.0462	0.0165	0.9585
10.6371	51.67	677.9892	63.7066	-242.2394	-27.4971	526.5558	20.3416	187.3701	-7.9053	76.515	0.95729	196.2607	-0.0592	0.0182	-0.0073	-0.0462	0.0165	0.9585
10.6494	52.0032	646.882	60.3822	-230.4803	-24.9411	500.8791	9.4099	246.6215	-9.8558	100.7437	7.5535	258.6256	-0.0592	0.0182	-0.0073	-0.0462	0.0165	0.9585
10.6617	51.8	608.3474	55.88	-216.271	-21.7729	469.7358	-4.3019	306.1785	-12.3928	125.0439	15.8047	321.0977	-0.0592	0.0182	-0.0073	-0.0462	0.0165	0.9585
10.674	50.688	562.0462	50.3824	-199.5006	-18.252	432.9073	-18.5952	363.233	-15.6042	148.2335	24.8641	380.405	-0.0592	0.0182	-0.0073	-0.0462	0.0165	0.9585
10.6863	48.3349	508.3183	44.2343	-180.2656	-14.7367	390.7031	-31.8175	417.0002	-19.3106	169.9699	33.8618	435.4421	-0.0592	0.0182	-0.0073	-0.0462	0.0165	0.9585
10.6986	44.5161	448.2579	37.8453	-158.9112	-11.5854	343.9729	-42.927	467.7557	-23.315	190.3453	42.1751	486.3899	-0.0592	0.0182	-0.0073	-0.0462	0.0165	0.9585
10.7109	39.1423	383.7468	31.5976	-136.0525	-9.0882	294.127	-51.452	515.8238	-27.5025	209.4832	49.512	533.5888	-0.0592	0.0182	-0.0073	-0.0462	0.0165	0.9585
10.7231	32.3095	317.4003	25.8087	-112.5644	-7.4263	243.1285	-57.3335	561.4105	-31.876	227.4509	55.8733	577.3146	-0.0592	0.0182	-0.0073	-0.0462	0.0165	0.9585
10.7354	24.3992	252.3072	20.7159	-89.5071	-6.631	193.2816	-60.7738	604.6717	-36.4907	244.2887	61.4264	617.8315	-0.0592	0.0182	-0.0073	-0.0462	0.0165	0.9585
10.7477	16.0866	191.6869	16.4259	-68.0082	-6.5361	146.9887	-62.1747	645.5536	-41.3788	259.9621	66.3936	655.2585	-0.0592	0.0182	-0.0073	-0.0462	0.0165	0.9585
10.76	8.3229	138.2559	12.9016	-49.0385	-6.7762	106.2324	-62.0769	683.6262	-46.4423	274.2986	70.9107	689.3842	-0.0592	0.0182	-0.0073	-0.0462	0.0165	0.9585
10.7723	1.967	93.6594	9.9963	-33.1985	-6.9345	72.2071	-61.0401	718.0157	-51.5044	286.9678	75.0356	719.5335	-0.0592	0.0182	-0.0073	-0.0462	0.0165	0.9585
10.7846	-2.4578	58.4282	7.5333	-20.6886	-6.6987	45.2773	-59.5902	747.7074	-56.3051	297.5954	78.7193	744.8827	-0.0592	0.0182	-0.0073	-0.0462	0.0165	0.9585
10.7969	-4.8618	32.1832	5.3693	-11.3806	-5.9359	25.1705	-58.0099	771.8012	-60.5792	305.8641	81.8184	764.6755	-0.0592	0.0182	-0.0073	-0.0462	0.0165	0.9585
10.8091	-5.5187	13.9949	3.4682	-4.9425	-4.7258	11.1951	-56.4293	789.6435	-64.0367	311.5593	84.1009	778.3872	-0.0592	0.0182	-0.0073	-0.0462	0.0165	0.9585
10.8214	-5.074	2.6308	1.9254	-0.92391	-3.3758	2.4383	-54.8292	800.7754	-66.4842	314.552	85.3738	785.6243	-0.0592	0.0182	-0.0073	-0.0462	0.0165	0.9585
10.8337	-4.0975	-3.4707	0.82393	1.2337	-2.1671	-2.2693	-53.1523	805.0776	-67.833	314.8373	85.5342	786.3301	-0.0592	0.0182	-0.0073	-0.0462	0.0165	0.9585
10.846	-2.9767	-5.8808	0.091418	2.0879	-1.1854	-4.116	-51.3004	802.8146	-68.1343	312.5617	84.6057	780.7851	-0.0592	0.0182	-0.0073	-0.0462	0.0165	0.9585
10.8583	-1.936	-5.9698	-0.32839	2.1241	-0.4768	-4.1608	-49.2362	794.7633	-67.5247	308.0657	82.7121	769.7608	-0.0592	0.0182	-0.0073	-0.0462	0.0165	0.9585
10.8706	-1.0858	-4.8059	-0.53673	1.7175	-0.0012677	-3.2331	-46.926	782.2001	-66.2114	301.8767	80.0547	754.4815	-0.0592	0.0182	-0.0073	-0.0462	0.0165	0.9585
10.8829	-0.45419	-3.129	-0.595	1.13	0.2749	-1.9174	-44.4189	766.7996	-64.4184	294.6742	76.8814	736.5443	-0.0592	0.0182	-0.0073	-0.0462	0.0165	0.9585
10.8951	-0.0312	-1.4149	-0.57319	0.52825	0.41449	-0.60134	-41.7819	750.4788	-62.3488	287.2282	73.4311	717.7409	-0.0592	0.0182	-0.0073	-0.0462	0.0165	0.9585
10.9074	0.22771	0.077672	-0.51135	0.0048058	0.46515	0.51297	-39.1009	735.2012	-60.1885	280.3152	69.929	699.8903	-0.0592	0.0182	-0.0073	-0.0462	0.0165	0.9585
10.9197	0.36988	1.2459	-0.4296	-0.40604	0.45743	1.3584	-36.4834	722.6831	-58.0928	274.6129	66.5706	684.5581	-0.0592	0.0182	-0.0073	-0.0462	0.0165	0.9585
10.932	0.42771	2.062	-0.34066	-0.69894	0.41149	1.9354	-34.0236	714.2424	-56.1813	270.6378	63.5064	672.9131	-0.0592	0.0182	-0.0073	-0.0462	0.0165	0.9585
10.9443	0.43495	2.5717	-0.24452	-0.89084	0.33826	2.2847	-31.8001	710.6953	-54.5184	268.7064	60.8181	665.6453	-0.0592	0.0182	-0.0073	-0.0462	0.0165	0.9585
10.9566	0.4123	2.8556	-0.15505	-1.0066	0.25673	2.4711	-29.8397	712.2929	-53.128	268.9134	58.5225	662.9093	-0.0592	0.0182	-0.0073	-0.0462	0.0165	0.9585
10.9689	0.37596	2.9854	-0.070402	-1.0706	0.16849	2.5456	-28.1311	718.7754	-51.9997	271.1444	56.5869	664.4117	-0.0592	0.0182	-0.0073	-0.0462	0.0165	0.9585
10.9811	0.33594	3.0298	-0.0073246	-1.106	0.092639	2.5676	-26.6121	729.3845	-51.1237	275.0847	54.9621	669.4123	-0.0592	0.0182	-0.0073	-0.0462	0.0165	0.9585
10.9934	0.29595	3.0263	0.045093	-1.1246	0.024395	2.5636	-25.2289	742.9213	-50.493	280.2459	53.6053	676.8105	-0.0592	0.0182	-0.0073	-0.0462	0.0165	0.9585
11.0057	0.24376	2.9936	0.072246	-1.131	-0.022036	2.5446	-23.9116	757.8805	-50.0864	286.0206	52.4604	685.2555	-0.0592	0.0182	-0.0073	-0.0462	0.0165	0.9585
11.018	0.16969	2.9253	0.092927	-1.12	-0.067749	2.5024	-22.6089	772.5972	-49.8799	291.7405	51.476	693.2948	-0.0592	0.0182	-0.0073	-0.0462	0.0165	0.9585
11.0303	0.060286	2.7877	0.097363	-1.0784	-0.11124	2.4051	-21.2651	785.3478	-49.8383	296.7241	50.594	699.4381	-0.0592	0.0182	-0.0073	-0.0462	0.0165	0.9585
11.0426	-0.10061	2.5266	0.10522	-0.98573	-0.17806	2.1986	-19.8351	794.5536	-49.9353	300.3485	49.7778	702.3639	-0.0592	0.0182	-0.0073	-0.0462	0.0165	0.9585
11.0549	-0.3122	2.0654	0.10349	-0.81531	-0.25706	1.7967	-18.2705	798.9412	-50.127	302.1175	48.9833	701.0346	-0.0592	0.0182	-0.0073	-0.0462	0.0165	0.9585
11.0671	-0.56409	1.3243	0.10338	-0.53631	-0.35325	1.1125	-16.5362	797.7437	-50.3699	301.7387	48.1709	694.8571	-0.0592	0.0182	-0.0073	-0.0462	0.0165	0.9585
11.0794	-0.8221	0.23607	0.086705	-0.12171	-0.43459	0.059863	-14.5596	790.8044	-50.6226	299.163	47.2904	683.7505	-0.0592	0.0182	-0.0073	-0.0462	0.0165	0.9585
11.0917	-1.0352	-1.239	0.061045	0.44216	-0.48533	-1.4041	-12.276	778.5822	-50.8782	294.5862	46.3269	668.1459	-0.0592	0.0182	-0.0073	-0.0462	0.0165	0.9585
11.104	-1.1013	-3.0552	0.010076	1.1339	-0.45388	-3.2325	-9.6446	762.1937	-51.1356	288.4627	45.2793	649.0176	-0.0592	0.0182	-0.0073	-0.0462	0.0165	0.9585
11.1163	-0.88869	-5.027	-0.068958	1.8824	-0.28811	-5.2271	-6.6457	743.3331	-51.4246	281.47	44.1787	627.8109	-0.0592	0.0182	-0.0073	-0.0462	0.0165	0.9585
11.1286	-0.2026	-6.7579	-0.19365	2.5374	0.10118	-6.9818	-3.2894	724.0399	-51.772	274.4192	43.0539	606.2492	-0.0592	0.0182	-0.0073	-0.0462	0.0165	0.9585
11.1409	1.1718	-7.564	-0.36786	2.8431	0.79985	-7.7969	0.40447	706.3728	-52.2089	268.1201	41.9361	586.069	-0.0592	0.0182	-0.0073	-0.0462	0.0165	0.9585
11.1531	3.4627	-6.4363	-0.60202	2.4148	1.9002	-6.6652	4.3945	692.0532	-52.7478	263.2383	40.8386	568.7277	-0.0592	0.0182	-0.0073	-0.0462	0.0165	0.9585
11.1654	6.8423	-2.0033	-0.88039	0.72955	3.4469	-2.197	8.6289	682.1055	-53.3948	260.1584	39.7673	555.109	-0.0592	0.0182	-0.0073	-0.0462	0.0165	0.9585
11.1777	11.3701	7.4147	-1.1814	-2.8509	5.4314	7.3099	13.0005	676.6251	-54.1286	258.8943	38.7224	545.358	-0.0592	0.0182	-0.0073	-0.0462	0.0165	0.9585
11.19	16.8343	23.6319	-1.4484	-9.0117	7.7135	23.7056	17.3614	674.7061	-54.8854	259.065	37.6931	538.8309	-0.0592	0.0182	-0.0073	-0.0462	0.0165	0.9585
11.2023	22.6093	48.242	-1.586	-18.3524	9.9563	48.6218	21.5109	674.5669	-55.552	259.9443	36.6572	534.2305	-0.0592	0.0182	-0.0073	-0.0462	0.0165	0.9585
11.2146	27.4581	82.0212	-1.4367	-31.1602	11.533	82.8695	25.1866	673.8329	-55.9705	260.5728	35.5893	529.8184	-0.0592	0.0182	-0.0073	-0.0462	0.0165	0.9585
11.2269	29.5319	124.2321	-0.77098	-47.1458	11.5269	125.7265	28.1076	669.9805	-55.9516	259.9334	34.4577	523.7412	-0.0592	0.0182	-0.0073	-0.0462	0.0165	0.9585
11.2391	27.1625	172.349	0.70911	-65.3315	9.0387	174.6616	30.0495	660.855	-55.281	257.1648	33.1958	514.401	-0.0592	0.0182	-0.0073	-0.0462	0.0165	0.9585
11.2514	20.3202	222.3273	3.36	-84.1484	3.7343	225.5463	30.9498	645.1613	-53.7732	251.7587	31.7019	500.792	-0.0592	0.0182	-0.0073	-0.0462	0.0165	0.9585
11.2637	10.9314	269.6039	7.4795	-101.8561	-3.9283	273.519	30.9571	622.6891	-51.3515	243.6459	29.8797	482.6493	-0.0592	0.0182	-0.0073	-0.0462	0.0165	0.9585
11.276	0.82375	311.618	12.7715	-117.5034	-12.9351	315.6554	30.4023	594.1973	-48.0831	233.1389	27.6606	460.3644	-0.0592	0.0182	-0.0073	-0.0462	0.0165	0.9585
